<svg xmlns="http://www.w3.org/2000/svg" version="1.1" viewBox="0 0 31.75 31.75" height="120" width="120">
  <path d="M0 0h6.35v6.35H0Z" id="1-1"/>
  <path d="M6.35 0h6.35v6.35H6.35Z" id="1-2"/>
  <path d="M12.7 0h6.35v6.35H12.7z" id="1-3"/>
  <path d="M19.05 0h6.35v6.35h-6.35z" id="1-4"/>
  <path d="M25.4 0h6.35v6.35H25.4z" id="1-5"/>
  <path d="M0 19.05h6.35V12.7H0Z" id="2-1"/>
  <path d="M6.35 19.05h6.35V12.7H6.35Z" id="2-2"/>
  <path d="M12.7 19.05h6.35V12.7H12.7z" id="2-3"/>
  <path d="M19.05 19.05h6.35V12.7h-6.35z" id="2-4"/>
  <path d="M25.4 19.05h6.35V12.7H25.4z" id="2-5"/>
  <path d="M0 31.75h6.35V25.4H0Z" id="3-1"/>
  <path d="M6.35 31.75h6.35V25.4H6.35Z" id="3-2"/>
  <path d="M12.7 31.75h6.35V25.4H12.7z" id="3-3"/>
  <path d="M19.05 31.75h6.35V25.4h-6.35z" id="3-4"/>
  <path d="M25.4 31.75h6.35V25.4H25.4z" id="3-5"/>
</svg>