<svg
    id="zapperCompact"
    xmlns="http://www.w3.org/2000/svg"
    width="525"
    height="244"
    viewBox="0 0 525 244"
    preserveAspectRatio="xMinYMin meet"
>
  <defs>
    <radialGradient xlink:href="#c_a" id="c_f" cx="223.802" cy="259.063" fx="223.802" fy="259.063" r="7.319"
                    gradientUnits="userSpaceOnUse"
                    gradientTransform="matrix(2.83877 -1.8357 1.7109 2.64578 -875.58 565.687)"/>
    <radialGradient xlink:href="#c_a" id="c_m" cx="223.802" cy="259.063" fx="223.802" fy="259.063" r="7.319"
                    gradientUnits="userSpaceOnUse"
                    gradientTransform="matrix(2.83877 -1.8357 1.7109 2.64578 -594.33 565.687)"/>
    <radialGradient xlink:href="#c_a" id="c_k" cx="223.802" cy="259.063" fx="223.802" fy="259.063" r="7.319"
                    gradientUnits="userSpaceOnUse"
                    gradientTransform="matrix(2.83877 -1.8357 1.7109 2.64578 -706.83 565.687)"/>
    <radialGradient xlink:href="#c_a" id="c_n" cx="223.802" cy="259.063" fx="223.802" fy="259.063" r="7.319"
                    gradientUnits="userSpaceOnUse"
                    gradientTransform="matrix(2.83877 -1.8357 1.7109 2.64578 -706.83 621.937)"/>
    <radialGradient xlink:href="#c_a" id="c_o" cx="223.802" cy="259.063" fx="223.802" fy="259.063" r="7.319"
                    gradientUnits="userSpaceOnUse"
                    gradientTransform="matrix(2.83877 -1.8357 1.7109 2.64578 -650.58 621.937)"/>
    <radialGradient xlink:href="#c_a" id="c_p" cx="223.802" cy="259.063" fx="223.802" fy="259.063" r="7.319"
                    gradientUnits="userSpaceOnUse"
                    gradientTransform="matrix(2.83877 -1.8357 1.7109 2.64578 -594.33 621.937)"/>
    <radialGradient xlink:href="#c_a" id="c_q" cx="223.802" cy="259.063" fx="223.802" fy="259.063" r="7.319"
                    gradientUnits="userSpaceOnUse"
                    gradientTransform="matrix(2.83877 -1.8357 1.7109 2.64578 -706.83 678.187)"/>
    <radialGradient xlink:href="#c_a" id="c_r" cx="223.802" cy="259.063" fx="223.802" fy="259.063" r="7.319"
                    gradientUnits="userSpaceOnUse"
                    gradientTransform="matrix(2.83877 -1.8357 1.7109 2.64578 -650.58 678.187)"/>
    <radialGradient xlink:href="#c_a" id="c_s" cx="223.802" cy="259.063" fx="223.802" fy="259.063" r="7.319"
                    gradientUnits="userSpaceOnUse"
                    gradientTransform="matrix(2.83877 -1.8357 1.7109 2.64578 -594.33 678.187)"/>
    <radialGradient xlink:href="#c_b" id="c_i" cx="223.802" cy="259.063" fx="223.802" fy="259.063" r="7.319"
                    gradientUnits="userSpaceOnUse"
                    gradientTransform="matrix(2.06456 -1.33505 1.2443 1.9242 -749.08 811.7)"/>
    <radialGradient xlink:href="#c_c" id="c_h" cx="223.802" cy="259.063" fx="223.802" fy="259.063" r="7.319"
                    gradientUnits="userSpaceOnUse"
                    gradientTransform="matrix(2.06456 -1.33505 1.2443 1.9242 -692.83 811.7)"/>
    <radialGradient xlink:href="#c_d" id="c_g" cx="223.802" cy="259.063" fx="223.802" fy="259.063" r="7.319"
                    gradientUnits="userSpaceOnUse"
                    gradientTransform="matrix(2.06456 -1.33505 1.2443 1.9242 -636.58 811.7)"/>
    <radialGradient xlink:href="#c_e" id="c_j" cx="223.802" cy="259.063" fx="223.802" fy="259.063" r="7.319"
                    gradientUnits="userSpaceOnUse"
                    gradientTransform="matrix(2.06456 -1.33505 1.2443 1.9242 -580.33 811.7)"/>
    <radialGradient xlink:href="#c_a" id="c_w" cx="223.802" cy="259.063" fx="223.802" fy="259.063" r="7.319"
                    gradientUnits="userSpaceOnUse"
                    gradientTransform="matrix(2.06456 -1.33505 1.2443 1.9242 -580.33 699.2)"/>
    <radialGradient xlink:href="#c_a" id="c_A" cx="223.802" cy="259.063" fx="223.802" fy="259.063" r="7.319"
                    gradientUnits="userSpaceOnUse"
                    gradientTransform="matrix(2.06456 -1.33505 1.2443 1.9242 -749.08 699.2)"/>
    <radialGradient xlink:href="#c_a" id="c_v" cx="223.802" cy="259.063" fx="223.802" fy="259.063" r="7.319"
                    gradientUnits="userSpaceOnUse"
                    gradientTransform="matrix(2.06456 -1.33505 1.2443 1.9242 -692.83 699.2)"/>
    <radialGradient xlink:href="#c_a" id="c_u" cx="223.802" cy="259.063" fx="223.802" fy="259.063" r="7.319"
                    gradientUnits="userSpaceOnUse"
                    gradientTransform="matrix(2.06456 -1.33505 1.2443 1.9242 -636.58 699.2)"/>
    <radialGradient xlink:href="#c_a" id="c_z" cx="223.802" cy="259.063" fx="223.802" fy="259.063" r="7.319"
                    gradientUnits="userSpaceOnUse"
                    gradientTransform="matrix(2.06456 -1.33505 1.2443 1.9242 -749.08 755.45)"/>
    <radialGradient xlink:href="#c_a" id="c_y" cx="223.802" cy="259.063" fx="223.802" fy="259.063" r="7.319"
                    gradientUnits="userSpaceOnUse"
                    gradientTransform="matrix(2.06456 -1.33505 1.2443 1.9242 -692.83 755.45)"/>
    <radialGradient xlink:href="#c_a" id="c_x" cx="223.802" cy="259.063" fx="223.802" fy="259.063" r="7.319"
                    gradientUnits="userSpaceOnUse"
                    gradientTransform="matrix(2.06456 -1.33505 1.2443 1.9242 -636.58 755.45)"/>
    <radialGradient xlink:href="#c_a" id="c_t" cx="223.802" cy="259.063" fx="223.802" fy="259.063" r="7.319"
                    gradientUnits="userSpaceOnUse"
                    gradientTransform="matrix(2.83877 -1.8357 1.7109 2.64578 -650.58 734.437)"/>
    <radialGradient xlink:href="#c_a" id="c_l" cx="223.802" cy="259.063" fx="223.802" fy="259.063" r="7.319"
                    gradientUnits="userSpaceOnUse"
                    gradientTransform="matrix(2.83877 -1.8357 1.7109 2.64578 -650.58 565.687)"/>
    <radialGradient r="7.319" fy="259.063" fx="223.802" cy="259.063" cx="223.802"
                    gradientTransform="matrix(2.06456 -1.33505 1.2443 1.9242 -580.33 755.45)"
                    gradientUnits="userSpaceOnUse" id="c_B" xlink:href="#c_a"/>
    <radialGradient r="7.319" fy="259.063" fx="223.802" cy="259.063" cx="223.802"
                    gradientTransform="matrix(2.83877 -1.8357 1.7109 2.64578 -1044.33 565.687)"
                    gradientUnits="userSpaceOnUse" id="c_C" xlink:href="#c_b"/>
    <radialGradient xlink:href="#c_a" id="c_F" cx="223.802" cy="259.063" fx="223.802" fy="259.063" r="7.319"
                    gradientUnits="userSpaceOnUse"
                    gradientTransform="matrix(2.83877 -1.8357 1.7109 2.64578 -819.33 734.437)"/>
    <radialGradient xlink:href="#c_a" id="c_D" cx="223.802" cy="259.063" fx="223.802" fy="259.063" r="7.319"
                    gradientUnits="userSpaceOnUse"
                    gradientTransform="matrix(2.83877 -1.8357 1.7109 2.64578 -819.33 678.187)"/>
    <radialGradient xlink:href="#c_a" id="c_E" cx="223.802" cy="259.063" fx="223.802" fy="259.063" r="7.319"
                    gradientUnits="userSpaceOnUse"
                    gradientTransform="matrix(2.83877 -1.8357 1.7109 2.64578 -819.33 621.937)"/>
    <radialGradient r="7.319" fy="259.063" fx="223.802" cy="259.063" cx="223.802"
                    gradientTransform="matrix(3.78424 -2.44709 2.28073 3.52698 -1123.504 584.012)"
                    gradientUnits="userSpaceOnUse" id="c_H" xlink:href="#c_a"/>
    <radialGradient r="7.319" fy="259.063" fx="223.802" cy="259.063" cx="223.802"
                    gradientTransform="matrix(3.78424 -2.44709 2.28073 3.52698 -1123.503 527.762)"
                    gradientUnits="userSpaceOnUse" id="c_G" xlink:href="#c_a"/>
    <radialGradient r="7.319" fy="259.063" fx="223.802" cy="259.063" cx="223.802"
                    gradientTransform="matrix(3.75025 -2.4512 2.26025 3.5329 -1110.924 639.757)"
                    gradientUnits="userSpaceOnUse" id="c_I" xlink:href="#c_a"/>
    <linearGradient id="c_a">
      <stop offset="0" style="stop-color:#333;stop-opacity:1"/>
      <stop offset="1" style="stop-color:#1a1a1a;stop-opacity:1"/>
    </linearGradient>
    <linearGradient id="c_e">
      <stop offset="0" style="stop-color:#37abc8;stop-opacity:1"/>
      <stop offset="1" style="stop-color:#003380;stop-opacity:1"/>
    </linearGradient>
    <linearGradient id="c_b">
      <stop style="stop-color:#d40000;stop-opacity:1" offset="0"/>
      <stop style="stop-color:#500;stop-opacity:1" offset="1"/>
    </linearGradient>
    <linearGradient id="c_c">
      <stop offset="0" style="stop-color:#00d400;stop-opacity:1"/>
      <stop offset="1" style="stop-color:#250;stop-opacity:1"/>
    </linearGradient>
    <linearGradient id="c_d">
      <stop style="stop-color:#fd5;stop-opacity:1" offset="0"/>
      <stop style="stop-color:#806600;stop-opacity:1" offset="1"/>
    </linearGradient>
  </defs>
  <g transform="translate(-.617 -813.88)">
    <path
        style="fill:#333;stroke:none;stroke-width:1.60649;stroke-linecap:round;stroke-linejoin:round;stroke-miterlimit:4"
        d="M.617 813.88h525v243.75h-525z"/>
    <circle
        style="fill:url(#c_f);stroke:#000;stroke-width:1"
        cx="207.53" cy="848.451" r="24"/>

    <g
        class="zapperButton"
        onclick="fastextY();"
    >
      <title>Yellow [o]</title>
      <circle
          class="zapperButton"
          onclick="fastextY();"
          style="fill:url(#c_g);stroke:#000;stroke-width:1"
          cx="151.136" cy="1017.345" r="24"/>
    </g>

    <g
        class="zapperButton"
        onclick="fastextG();"
    >
      <title>Green [i]</title>
      <circle
          style="fill:url(#c_h);stroke:#000;stroke-width:1"
          cx="94.886" cy="1017.345" r="24"/>
    </g>

    <g
        class="zapperButton"
        onclick="fastextR();"
    >
      <title>Red [u]</title>
      <circle
          class="zapperButton"
          onclick="fastextR();"
          style="fill:url(#c_i);stroke:#000;stroke-width:1"
          cx="38.636" cy="1017.345" r="24"/>
    </g>

    <g
        class="zapperButton"
        onclick="fastextC();"
    >
      <title>Cyan [p]</title>
      <circle
          style="fill:url(#c_j);stroke:#000;stroke-width:1"
          cx="207.386" cy="1017.345" r="24"/>
    </g>

    <g
        class="zapperButton"
        onclick="k1();"
    >
      <title>1 [1]</title>
      <circle r="24" cy="848.451" cx="376.28"
              style="fill:url(#c_k);stroke:#000;stroke-width:1"/>
      <path
          style="fill:#ccc;"
          d="M31.38 682.504h-1.647v-10.501q-.595.567-1.566 1.135-.961.568-1.73.851v-1.593q1.382-.65 2.417-1.574 1.034-.925 1.465-1.795h1.062z"
          transform="translate(326.004 -326.794) scale(1.73913)"/>
    </g>

    <g
        class="zapperButton"
        onclick="k2();"
    >
      <title>2 [2]</title>
      <circle r="24" cy="848.451" cx="432.53"
              style="fill:url(#c_l);stroke:#000;stroke-width:1"/>
      <path
          style="fill:#ccc;"
          d="M79.584 680.92v1.584h-8.871q-.018-.595.192-1.145.339-.906 1.08-1.785.751-.879 2.161-2.032 2.188-1.795 2.957-2.839.77-1.052.77-1.986 0-.98-.706-1.648-.696-.678-1.822-.678-1.19 0-1.904.714-.714.715-.723 1.978l-1.694-.174q.174-1.895 1.31-2.884 1.135-.998 3.048-.998 1.932 0 3.058 1.071t1.126 2.655q0 .806-.33 1.584t-1.098 1.639q-.76.86-2.536 2.362-1.483 1.245-1.905 1.694-.42.44-.695.888z"
          transform="translate(301.839 -326.794) scale(1.73913)"/>
    </g>

    <g
        class="zapperButton"
        onclick="k3();"
    >
      <title>3 [3]</title>
      <circle r="24" cy="848.451" cx="488.78"
              style="fill:url(#c_m);stroke:#000;stroke-width:1"/>
      <path
          style="fill:#ccc;"
          d="m115.972 678.723 1.648-.22q.284 1.4.961 2.023.687.614 1.667.614 1.162 0 1.959-.806.806-.806.806-1.996 0-1.135-.742-1.868-.742-.741-1.886-.741-.467 0-1.163.183l.183-1.447q.165.019.266.019 1.053 0 1.895-.55.842-.549.842-1.693 0-.907-.613-1.502t-1.584-.595q-.961 0-1.602.604-.64.605-.824 1.813l-1.648-.293q.302-1.657 1.373-2.563 1.071-.916 2.665-.916 1.098 0 2.023.476.925.467 1.41 1.282.494.815.494 1.73 0 .87-.467 1.584-.467.714-1.382 1.135 1.19.275 1.85 1.145.658.86.658 2.16 0 1.758-1.281 2.985-1.282 1.218-3.241 1.218-1.767 0-2.94-1.053-1.162-1.053-1.327-2.728z"
          transform="matrix(1.70895 0 0 1.70895 283.08 -306.192)"/>
    </g>

    <g
        class="zapperButton"
        onclick="k4();"
    >
      <title>4 [4]</title>
      <circle r="24" cy="904.701" cx="376.28"
              style="fill:url(#c_n);stroke:#000;stroke-width:1"/>
      <path
          style="fill:#ccc;"
          d="M30.456 727.316v-3.213h-5.823v-1.51l6.125-8.698h1.346v8.697h1.813v1.51h-1.813v3.214zm0-4.724v-6.052l-4.202 6.052z"
          transform="matrix(1.74625 0 0 1.74625 325.16 -353.655)"/>
    </g>

    <g
        class="zapperButton"
        onclick="k5();"
    >
      <title>5 [5]</title>
      <circle r="24" cy="904.701" cx="432.53"
              style="fill:url(#c_o);stroke:#000;stroke-width:1"/>
      <path
          style="fill:#ccc;"
          d="m70.736 723.8 1.73-.146q.193 1.264.888 1.904.705.632 1.694.632 1.19 0 2.014-.897.824-.897.824-2.38 0-1.41-.796-2.225-.788-.815-2.07-.815-.796 0-1.437.366-.64.357-1.007.934l-1.547-.201 1.3-6.894h6.674v1.574h-5.356l-.723 3.608q1.209-.843 2.536-.843 1.758 0 2.966 1.218 1.209 1.218 1.209 3.131 0 1.822-1.062 3.15-1.291 1.63-3.525 1.63-1.831 0-2.994-1.026-1.153-1.026-1.318-2.72z"
          transform="matrix(1.74031 0 0 1.74031 301.684 -349.737)"/>
    </g>

    <g
        class="zapperButton"
        onclick="k6();"
    >
      <title>6 [6]</title>
      <circle r="24" cy="904.701" cx="488.78"
              style="fill:url(#c_p);stroke:#000;stroke-width:1"/>
      <path
          style="fill:#ccc;"
          d="m124.514 716.943-1.639.128q-.22-.97-.622-1.41-.669-.704-1.648-.704-.788 0-1.383.44-.778.567-1.226 1.656-.45 1.09-.467 3.104.595-.907 1.455-1.346.86-.44 1.804-.44 1.648 0 2.801 1.218 1.163 1.209 1.163 3.131 0 1.264-.55 2.353-.54 1.08-1.491 1.657-.953.577-2.161.577-2.06 0-3.36-1.51-1.3-1.52-1.3-5 0-3.89 1.437-5.657 1.254-1.538 3.379-1.538 1.583 0 2.59.888 1.017.888 1.218 2.453zm-6.729 5.786q0 .852.357 1.63.366.778 1.016 1.19.65.403 1.364.403 1.044 0 1.795-.842.75-.842.75-2.289 0-1.392-.741-2.188-.742-.806-1.868-.806-1.117 0-1.895.806-.778.796-.778 2.096z"
          transform="matrix(1.71009 0 0 1.71009 283.021 -327.338)"/>
    </g>

    <g
        class="zapperButton"
        onclick="k7();"
    >
      <title>7 [7]</title>
      <circle r="24" cy="960.951" cx="376.28"
              style="fill:url(#c_q);stroke:#000;stroke-width:1"/>
      <path
          style="fill:#ccc;"
          d="M25.283 760.652v-1.583h8.689v1.281q-1.282 1.364-2.546 3.626-1.254 2.261-1.94 4.65-.495 1.685-.632 3.69H27.16q.028-1.584.623-3.827t1.703-4.321q1.116-2.087 2.37-3.516z"
          transform="matrix(1.76918 0 0 1.76918 323.864 -393.695)"/>
    </g>

    <g
        class="zapperButton"
        onclick="k8();"
    >
      <title>8 [8]</title>
      <circle r="24" cy="960.951" cx="432.53"
              style="fill:url(#c_r);stroke:#000;stroke-width:1"/>
      <path
          style="fill:#ccc;"
          d="M73.272 765.038q-1.025-.376-1.52-1.071-.494-.696-.494-1.667 0-1.464 1.053-2.462 1.052-.998 2.801-.998 1.758 0 2.83 1.025 1.07 1.016 1.07 2.481 0 .934-.494 1.63-.485.686-1.483 1.062 1.236.403 1.877 1.3.65.897.65 2.142 0 1.721-1.218 2.893-1.218 1.172-3.204 1.172-1.987 0-3.205-1.172-1.217-1.18-1.217-2.939 0-1.309.659-2.188.668-.888 1.895-1.208zm-.33-2.793q0 .953.614 1.557.613.604 1.593.604.952 0 1.556-.595.614-.604.614-1.474 0-.906-.632-1.52-.623-.622-1.557-.622-.943 0-1.565.604-.623.604-.623 1.446zm-.53 6.199q0 .705.329 1.364.339.659.998 1.025.659.357 1.419.357 1.18 0 1.95-.76.769-.76.769-1.932 0-1.19-.796-1.968-.788-.778-1.978-.778-1.163 0-1.932.769-.76.769-.76 1.923z"
          transform="matrix(1.71009 0 0 1.71009 304.035 -348.45)"/>
    </g>

    <g
        class="zapperButton"
        onclick="k9();"
    >
      <title>9 [9]</title>
      <circle r="24" cy="960.951" cx="488.78"
              style="fill:url(#c_s);stroke:#000;stroke-width:1"/>
      <path
          style="fill:#ccc;"
          d="m116.21 768.975 1.584-.147q.202 1.117.77 1.62.567.504 1.455.504.76 0 1.327-.348.577-.348.943-.924.367-.586.614-1.575t.247-2.014q0-.11-.009-.33-.494.787-1.355 1.282-.851.485-1.85.485-1.666 0-2.82-1.208-1.153-1.209-1.153-3.187 0-2.041 1.2-3.286 1.208-1.245 3.02-1.245 1.31 0 2.39.705 1.09.705 1.648 2.014.568 1.3.568 3.772 0 2.572-.559 4.101-.558 1.52-1.666 2.317-1.098.796-2.582.796-1.574 0-2.572-.87-.998-.879-1.2-2.462zm6.748-5.924q0-1.419-.76-2.252-.75-.833-1.813-.833-1.099 0-1.913.897-.815.897-.815 2.325 0 1.282.769 2.088.778.796 1.913.796 1.145 0 1.877-.796.742-.806.742-2.225z"
          transform="matrix(1.71009 0 0 1.71009 282.927 -348.042)"/>
    </g>

    <g
        class="zapperButton"
        onclick="k0();"
    >
      <title>0 [0]</title>
      <circle r="24" cy="1017.201" cx="432.53"
              style="fill:url(#c_t);stroke:#000;stroke-width:1"/>
      <path
          style="fill:#ccc;"
          d="M70.736 810.322q0-2.38.485-3.827.495-1.456 1.456-2.243.97-.787 2.435-.787 1.08 0 1.895.44.815.43 1.346 1.253.531.815.833 1.996.302 1.172.302 3.168 0 2.362-.485 3.818-.485 1.446-1.456 2.243-.96.787-2.435.787-1.94 0-3.049-1.392-1.327-1.675-1.327-5.456zm1.694 0q0 3.305.769 4.404.778 1.09 1.913 1.09t1.904-1.1q.779-1.098.779-4.394 0-3.314-.779-4.404-.769-1.09-1.922-1.09-1.135 0-1.813.962-.851 1.227-.851 4.532z"
          transform="matrix(1.71009 0 0 1.71009 304.082 -368.513)"/>
    </g>

    <circle r="24" cy="904.845" cx="151.136"
            style="fill:url(#c_u);stroke:#000;stroke-width:1"/>
    <g style="fill:#ccc">
      <path style="fill:#ccc;fill-rule:nonzero;stroke:none"
            d="m11.42 1049.4-1.42-2.213h2.83zm-1.42-4.195 1.42-2.208 1.41 2.208zm-.315.42h3.471v1.14H9.685Zm-7.24 2.574h5.227v1.135H2.446Zm0-2.575h5.227v1.141H2.446Zm0-2.547h5.227v1.132H2.446Zm12.07-1.286a33.404 33.404 0 0 0-6.7-.674c-2.43 0-4.528.217-6.29.65-.518 1.293-.777 2.728-.777 4.296 0 1.675.23 3.255.686 4.744 1.888.52 3.973.784 6.264.784 2.438 0 4.69-.244 6.753-.73.542-1.316.815-2.75.815-4.313 0-1.7-.251-3.287-.75-4.757m1.075 1.124c.273 1.218.409 2.419.409 3.609 0 1.763-.31 3.367-.935 4.81l-.064.175-.187.042c-2.104.537-4.486.811-7.142.811-2.422 0-4.628-.29-6.62-.866l-.184-.037-.067-.193c-.534-1.566-.801-3.29-.801-5.172 0-1.785.3-3.386.895-4.798l.08-.162.17-.053c1.782-.48 4.03-.719 6.75-.719 2.37 0 4.692.244 6.973.73l.197.042.065.188c.16.414.315.943.461 1.593"
            transform="matrix(1.46484 0 0 1.46484 139.417 -627.912)"/>
    </g>
    <circle r="24" cy="904.845" cx="94.886"
            style="fill:url(#c_v);stroke:#000;stroke-width:1"/>
    <g style="fill:#ccc">
      <path style="fill:#ccc;fill-rule:nonzero;stroke:none"
            d="m12.211 1049.336-1.065-2.082-1.069 2.082H8.921l1.658-3.206-1.5-2.949h1.119l.948 1.84.945-1.84h1.135l-1.514 2.949 1.655 3.206zm-9.765-1.086h5.228v1.138H2.446zm0-2.548h5.228v1.13H2.446zm0-2.573h5.228v1.141H2.446zm12.067-1.34c-2.2-.45-4.436-.676-6.7-.676-2.435 0-4.534.22-6.286.65-.518 1.298-.78 2.732-.78 4.301 0 1.673.228 3.256.687 4.742 1.885.524 3.973.787 6.264.787 2.449 0 4.697-.241 6.75-.732.543-1.314.818-2.75.818-4.309 0-1.706-.254-3.291-.753-4.764m1.081 1.127a16.44 16.44 0 0 1 .406 3.607c0 1.767-.312 3.368-.935 4.81l-.066.176-.182.042c-2.107.54-4.489.812-7.145.812-2.422 0-4.628-.29-6.62-.87l-.184-.035-.067-.191c-.534-1.575-.801-3.3-.801-5.173 0-1.785.296-3.387.895-4.8l.077-.162.17-.053c.45-.118 1.077-.239 1.883-.365a32.905 32.905 0 0 1 4.87-.351c2.37 0 4.692.241 6.975.73l.195.04.067.188c.16.406.313.938.462 1.596"
            transform="matrix(1.46484 0 0 1.46484 83.167 -627.911)"/>
    </g>
    <circle r="24" cy="904.845" cx="207.386"
            style="fill:url(#c_w);stroke:#000;stroke-width:1"/>
    <g style="fill:#ccc">
      <path style="fill:#ccc;fill-rule:nonzero;stroke:none"
            d="M10.737 1044.85h1.161v4.474h-1.161zm0-1.679h1.161v1.084h-1.161zm-8.291 5.066h5.223v1.139H2.446Zm0-2.55h5.223v1.132H2.446Zm0-2.57h5.223v1.138H2.446Zm12.07-1.325a33.57 33.57 0 0 0-6.698-.675c-2.44 0-4.536.216-6.29.65-.519 1.297-.778 2.73-.778 4.295 0 1.679.227 3.262.684 4.746 1.888.526 3.976.787 6.264.787 2.449 0 4.7-.244 6.753-.733.545-1.316.817-2.753.817-4.311 0-1.701-.25-3.29-.753-4.76m1.08 1.125c.269 1.218.405 2.422.405 3.61 0 1.766-.31 3.368-.932 4.808l-.067.178-.184.038c-2.104.543-4.488.812-7.145.812-2.422 0-4.628-.288-6.617-.866l-.187-.038-.064-.19c-.534-1.574-.804-3.3-.804-5.176 0-1.782.3-3.382.895-4.794l.08-.165.17-.055a20.625 20.625 0 0 1 1.883-.365 32.561 32.561 0 0 1 4.868-.35c2.369 0 4.694.243 6.975.729l.197.041.064.186c.158.406.313.939.462 1.597"
            transform="matrix(1.46484 0 0 1.46484 195.667 -627.912)"/>
    </g>
    <circle r="24" cy="961.095" cx="151.136"
            style="fill:url(#c_x);stroke:#000;stroke-width:1"/>
    <g style="fill:#ccc">
      <path style="fill:#ccc;fill-rule:nonzero;stroke:none;stroke-width:2"
            d="m22.924 1036.674-2.958 2.046h3.43c-.134-.717-.296-1.4-.472-2.046m.74 3.821h-6.25l-3.208 2.24h9.624a27.242 27.242 0 0 0-.166-2.24m-12.01 4.006-3.204 2.222h15.07c.14-.693.227-1.43.269-2.222zm-5.71 3.997v-.039l-2.51 1.751c2.631.608 5.502.902 8.613.902 3.841 0 7.346-.364 10.526-1.11.18-.437.351-.945.518-1.52H5.945Zm6.246-13.684c-3.823 0-7.091.334-9.805.997-.809 2.026-1.21 4.267-1.21 6.716 0 2.302.29 4.552.882 6.75l19.573-13.618a53.196 53.196 0 0 0-9.44-.845m12.177 2.79c.42 1.9.633 3.779.633 5.635 0 2.757-.485 5.263-1.46 7.513l-.121.274-.268.069c-3.305.84-7.031 1.267-11.183 1.267-3.786 0-7.23-.455-10.345-1.352l-.287-.066-.083-.296C.42 1048.199 0 1045.504 0 1042.566c0-2.787.467-5.288 1.396-7.495l.125-.258.268-.08c.698-.186 1.673-.38 2.922-.57a51.14 51.14 0 0 1 7.604-.55c3.717 0 7.355.375 10.92 1.139l.286.06.12.297c.25.636.49 1.466.726 2.496"
            transform="translate(139.417 -16.707) scale(.9375)"/>
    </g>

    <g
        class="zapperButton"
        onclick="krvl();"
    >
      <title>Reveal [r]</title>
      <circle r="24" cy="961.095" cx="94.886"
              style="fill:url(#c_y);stroke:#000;stroke-width:1"/>
      <g style="fill:#ccc">
        <path style="fill:#ccc;fill-rule:nonzero;stroke:none"
              d="M10.859 1048.063h1.043v1.292h-1.043zm2.332-2.474c-.142.187-.395.442-.763.774-.238.22-.387.403-.449.543-.061.14-.088.384-.077.718h-1.043v-.301c0-.365.056-.67.165-.906.11-.235.312-.49.611-.756.352-.313.574-.533.664-.661a.809.809 0 0 0 .14-.472c0-.277-.1-.497-.297-.65a1.08 1.08 0 0 0-.69-.23c-.615 0-.99.37-1.13 1.116l-1.053-.15c.037-.614.266-1.105.696-1.464.398-.332.875-.499 1.435-.499s1.049.158 1.462.483c.465.348.697.82.697 1.423 0 .348-.123.691-.368 1.031m-10.734 2.625h5.21v1.14h-5.21Zm0-2.554h5.21v1.139h-5.21Zm0-2.564h5.21v1.13h-5.21Zm12.06-1.303a33.128 33.128 0 0 0-6.692-.674c-2.446 0-4.54.213-6.286.65-.517 1.294-.776 2.729-.776 4.295 0 1.686.23 3.266.686 4.744 1.873.527 3.956.787 6.243.787 2.446 0 4.696-.244 6.747-.732.544-1.314.814-2.753.814-4.309 0-1.703-.245-3.29-.736-4.76m1.064 1.124c.28 1.215.419 2.419.419 3.61 0 1.765-.31 3.367-.934 4.807l-.077.175-.17.041c-2.114.54-4.497.812-7.154.812-2.417 0-4.623-.288-6.614-.867l-.181-.04-.07-.188c-.533-1.585-.8-3.315-.8-5.188 0-1.786.304-3.379.907-4.783l.067-.163.184-.055c.445-.116 1.07-.235 1.868-.364a32.868 32.868 0 0 1 4.863-.351c2.375 0 4.699.244 6.97.729l.197.042.08.186c.146.406.296.938.445 1.597"
              transform="matrix(1.46484 0 0 1.46484 83.167 -571.662)"/>
      </g>
    </g>

    <g
        class="zapperButton"
        onclick="khold();"
    >
      <title>Hold [h]</title>
      <circle r="24" cy="961.095" cx="38.636"
              style="fill:url(#c_z);stroke:#000;stroke-width:1"/>
      <g style="fill:#ccc">
        <path style="fill:#ccc;fill-rule:nonzero;stroke:none"
              d="m9.998 1048.958 1.423-2.213 1.407 2.213zm1.423-3.321-1.423-2.216h2.83Zm-1.735 0h3.47v1.13h-3.47Zm-7.24 2.564H7.67v1.138H2.446Zm0-2.564H7.67v1.13H2.446Zm0-2.57H7.67v1.136H2.446Zm12.067-1.272c-2.2-.45-4.432-.677-6.699-.677-2.437 0-4.533.217-6.287.65-.518 1.3-.777 2.731-.777 4.297 0 1.687.227 3.269.684 4.744 1.885.524 3.975.787 6.263.787 2.448 0 4.699-.244 6.752-.732.544-1.316.817-2.75.817-4.311 0-1.7-.251-3.288-.753-4.758m1.081 1.124a16.62 16.62 0 0 1 .406 3.607c0 1.766-.312 3.367-.934 4.81l-.067.178-.184.037c-2.104.54-4.486.811-7.142.811-2.422 0-4.63-.29-6.618-.866l-.185-.037-.066-.189c-.534-1.569-.804-3.294-.804-5.175 0-1.785.299-3.381.894-4.796l.078-.163.173-.055c.446-.118 1.076-.238 1.883-.367a32.922 32.922 0 0 1 4.87-.351c2.365 0 4.69.246 6.97.732l.198.042.064.186c.16.406.312.938.464 1.596"
              transform="matrix(1.46484 0 0 1.46484 26.917 -571.662)"/>
      </g>
    </g>

    <circle r="24" cy="904.845" cx="38.636"
            style="fill:url(#c_A);stroke:#000;stroke-width:1"/>
    <g style="fill:#ccc">
      <path style="fill:#ccc;fill-rule:nonzero;stroke:none"
            d="M2.705 1048.197h10.587v1.136H2.705Zm0-2.567h10.587v1.136H2.705Zm0-2.564h10.587v1.133H2.705Zm11.796-1.27a33.144 33.144 0 0 0-6.693-.677c-2.436 0-4.532.216-6.283.65-.517 1.297-.777 2.731-.777 4.299 0 1.682.228 3.262.683 4.735 1.886.523 3.973.784 6.259.784 2.445 0 4.694-.243 6.746-.726.544-1.318.813-2.752.813-4.313 0-1.702-.248-3.284-.748-4.752m1.08 1.121c.28 1.215.419 2.418.419 3.606 0 1.765-.316 3.369-.946 4.809l-.065.175-.183.044c-2.105.538-4.485.811-7.14.811-2.421 0-4.624-.291-6.616-.866l-.184-.04-.065-.19c-.535-1.568-.801-3.293-.801-5.174 0-1.783.299-3.384.893-4.796l.077-.166.171-.05a18.292 18.292 0 0 1 1.88-.365 32.565 32.565 0 0 1 4.867-.352c2.368 0 4.689.24 6.968.729l.198.039.065.19c.16.406.31.938.461 1.597"
            transform="matrix(1.46484 0 0 1.46484 26.917 -627.912)"/>
    </g>
    <g>
      <circle
          style="fill:url(#c_B);stroke:#000;stroke-width:1;stroke-filter:url(#filter1011)"
          cx="207.386" cy="961.095" r="24"/>
      <g style="fill:#ccc">
        <path
            d="M11.736 1049.368h-1.194v-1.133h1.194m0 0h.597m0 0h1.194v1.133h-1.194m-2.388 0H8.751v-1.133h1.194m-7.5 0H7.67v1.138H2.446Zm0-2.551H7.67v1.132H2.446Zm0-2.57H7.67v1.138H2.446Zm12.07-1.325a33.57 33.57 0 0 0-6.697-.675c-2.44 0-4.536.216-6.29.65-.519 1.297-.778 2.73-.778 4.295 0 1.68.227 3.262.684 4.746 1.888.526 3.976.787 6.264.787 2.449 0 4.7-.244 6.753-.732.545-1.317.817-2.754.817-4.312 0-1.701-.25-3.29-.753-4.76m1.08 1.125c.269 1.218.405 2.422.405 3.61 0 1.766-.31 3.368-.932 4.808l-.067.178-.184.038c-2.104.544-4.488.812-7.145.812-2.422 0-4.628-.288-6.617-.866l-.187-.038-.064-.19c-.534-1.571-.804-3.296-.804-5.173 0-1.782.3-3.382.895-4.794l.08-.165.17-.055a20.625 20.625 0 0 1 1.883-.365 32.561 32.561 0 0 1 4.868-.35c2.369 0 4.694.243 6.975.729l.197.041.064.186c.158.406.313.939.462 1.597"
            style="fill:#ccc;fill-rule:nonzero;stroke:none"
            transform="matrix(1.4648 0 0 1.4648 195.667 -571.66)"/>
      </g>
    </g>
    <g>
      <circle r="24" cy="848.451" cx="38.78"
              style="fill:url(#c_C);stroke:#000;stroke-width:1.06104"/>
      <path
          style="fill:none;stroke:#ccc;stroke-width:2.5;stroke-linecap:round;stroke-linejoin:miter;stroke-miterlimit:4;stroke-dasharray:none"
          d="M38.797 838.014v7.254m4.004-4.005c3.888 1.857 5.977 6.152 5.049 10.388-.929 4.178-4.642 7.196-8.937 7.254-4.294.058-8.124-2.844-9.168-7.022-.987-4.178.986-8.53 4.816-10.503"/>
    </g>
    <g>
      <circle r="24" cy="960.95" cx="263.78"
              style="fill:url(#c_D);stroke:#000;stroke-width:1"/>
      <g
         aria-label="−">
        <path style="font-size:20px;fill:#ccc;stroke:none"
              d="M23.724 854.718h12.52v1.66h-12.52Z" transform="matrix(1.31598 0 0 1.31598 224.58 -164.668)"/>
      </g>
    </g>
    <path d="M263.988 930.825v4.57"
          style="fill:none;fill-rule:evenodd;stroke:#ccc;stroke-width:2;stroke-linecap:butt;stroke-linejoin:miter;stroke-miterlimit:4;stroke-dasharray:none"/>
    <g>
      <circle r="24" cy="904.7" cx="263.78"
              style="fill:url(#c_E);stroke:#000;stroke-width:1"/>
      <g>
        <path d="M30.757 804.139v5.44h5.44v1.66h-5.44v5.439h-1.64v-5.44h-5.44v-1.66h5.44v-5.44z"
              style="font-size:20px;fill:#ccc;stroke-width:1px"
              transform="matrix(1.31598 0 0 1.31598 224.581 -162.639)" aria-label="+"/>
      </g>
    </g>
    <g>
      <circle r="24" cy="1017.2" cx="263.78"
              style="fill:url(#c_F);stroke:#000;stroke-width:1"/>
      <g style="fill:none;stroke:#ccc;stroke-linecap:round">
        <path d="m-15.169 880.779 7.559 7.558"
              style="fill:none;fill-rule:evenodd;stroke:#ccc;stroke-width:1px;stroke-linecap:round;stroke-linejoin:miter"
              transform="matrix(1.6165 0 0 1.6165 283.805 -412.172)"/>
        <g style="fill:none;stroke:#ccc">
          <g transform="matrix(1.90334 0 0 1.8299 301.528 -598.92)" style="fill:none;stroke:#ccc">
            <rect
                style="fill:none;stroke:#ccc;stroke-width:.9375;stroke-linecap:butt;stroke-linejoin:miter;stroke-miterlimit:4"
                width="1.912" height="4.07" x="-23.253" y="881.21" ry="0"/>
            <path
                style="fill:none;stroke:#ccc;stroke-width:1;stroke-linecap:butt;stroke-linejoin:miter;stroke-miterlimit:4"
                d="m-17.943 314.656-4.287 3.213v4.342l4.226 3.256z"
                transform="matrix(.9375 0 0 .9375 -.5 583.208)"/>
          </g>
          <path
              style="fill:none;fill-rule:evenodd;stroke:#ccc;stroke-width:1px;stroke-linecap:round;stroke-linejoin:miter"
              d="m-7.61 880.779-7.559 7.558" transform="matrix(1.6165 0 0 1.6165 283.805 -412.172)"/>
        </g>
      </g>
    </g>

    <g
      class="zapperButton"
      onclick="kfwd();"
    >
      <title>Forward one page [f]</title>
      <circle r="24"
              style="fill:url(#c_G);stroke:#000;stroke-width:1"
              cx="320.342" cy="904.701"/>
      <path style="font-size:20px;fill:#ccc;stroke-width:1.23373px"
            d="M321.026 896.572v7.159h7.158v2.184h-7.158v7.159h-2.159v-7.159h-7.158v-2.184h7.158v-7.159z"/>
    </g>

    <g
      class="zapperButton"
      onclick="kback();"
    >
      <title>Back one page [b]</title>
      <circle
          style="fill:url(#c_H);stroke:#000;stroke-width:1"
          cx="320.342" cy="960.951" r="24"/>
      <g>
        <path d="M23.724 854.718h12.52v1.66h-12.52Z"
              style="font-size:20px;fill:#ccc;stroke:none"
              transform="matrix(1.31598 0 0 1.31598 280.55 -164.626)" aria-label="−"/>
      </g>
    </g>

    <path
        style="fill:none;fill-rule:evenodd;stroke:#ccc;stroke-width:2;stroke-linecap:butt;stroke-linejoin:miter;stroke-miterlimit:4;stroke-dasharray:none"
        d="M319.978 930.825v4.57"/>
    <g
        aria-label="V">
      <path style="fill:#ccc;stroke-width:1px"
            d="m278.716 937.319-3.48-9.113h1.288l2.887 7.673 2.893-7.673h1.282l-3.473 9.113z"/>
    </g>
    <g
        aria-label="P">
      <path style="fill:#ccc;stroke-width:1px"
            d="M333.064 929.22v3.424h1.55q.861 0 1.331-.446.47-.445.47-1.27 0-.817-.47-1.263-.47-.445-1.33-.445zm-1.233-1.014h2.783q1.532 0 2.314.696.787.69.787 2.027 0 1.348-.787 2.038-.782.69-2.314.69h-1.55v3.662h-1.233z"/>
    </g>
    <g>
      <ellipse
          style="fill:url(#c_I);stroke:#000;stroke-width:1"
          cx="320" cy="1017.33" rx="23.614" ry="23.868"/>
      <g style="fill:#ccc">
        <path style="fill:#ccc;fill-rule:nonzero;stroke:none;stroke-width:.330729"
              d="M65.395 148.164a.26.26 0 0 0-.191.079.261.261 0 0 0-.08.191h.271zm.257.526a.35.35 0 0 1-.257.107.349.349 0 0 1-.257-.107.35.35 0 0 1-.105-.256c0-.1.035-.186.105-.258a.349.349 0 0 1 .257-.106c.1 0 .185.035.257.106.07.072.106.158.106.258a.35.35 0 0 1-.106.256m-1.372-.002h.665v.14h-.665zm0-.32h.665v.142h-.665zm0-.316h.665v.14h-.665zm1.492-.16a4.386 4.386 0 0 0-.853-.083c-.31 0-.578.027-.802.08a1.397 1.397 0 0 0-.1.534c0 .208.03.404.088.589.24.064.507.097.798.097.311 0 .598-.03.86-.09.07-.164.105-.342.105-.536 0-.211-.032-.408-.096-.59m.137.14c.035.15.052.3.052.447 0 .219-.04.418-.119.597l-.008.021-.024.005c-.268.068-.571.101-.91.101-.309 0-.59-.036-.843-.107l-.024-.005-.008-.024a1.93 1.93 0 0 1-.103-.642c0-.22.038-.42.114-.595l.01-.02.022-.007c.057-.015.137-.03.24-.045a4.35 4.35 0 0 1 1.51.047l.024.005.009.023c.02.051.04.118.058.198"
              transform="matrix(11.49645 0 0 11.80752 -426.654 -735.356)"/>
      </g>
    </g>
  </g>
</svg>